<svg xmlns="http://www.w3.org/2000/svg" xmlns:xlink="http://www.w3.org/1999/xlink" width="1920" zoomAndPan="magnify" viewBox="0 0 1440 809.999993" height="1080" preserveAspectRatio="xMidYMid meet" version="1.0"><rect x="-144" width="1728" fill="#ffffff" y="-80.999999" height="971.999992" fill-opacity="1"/><rect x="-144" width="1728" fill="#ffffff" y="-80.999999" height="971.999992" fill-opacity="1"/><path fill="#2d3540" d="M 1434.488281 -151.339844 L -7.574219 -151.339844 C -16.050781 -151.339844 -22.941406 -144.460938 -22.941406 -135.96875 L -22.941406 6.320312 L 1449.859375 6.320312 L 1449.859375 -135.96875 C 1449.859375 -144.460938 1442.964844 -151.339844 1434.488281 -151.339844 Z M 1434.488281 -136.332031 L 1434.835938 -135.96875 L 1434.835938 -8.6875 L -7.921875 -8.6875 L -7.921875 -135.96875 L -7.574219 -136.332031 L 1434.488281 -136.332031 " fill-opacity="1" fill-rule="nonzero"/><path fill="#656d79" d="M 1449.859375 933.003906 L -22.941406 933.003906 L -22.941406 6.320312 L 1449.859375 6.320312 L 1449.859375 933.003906 " fill-opacity="1" fill-rule="nonzero"/><path fill="#818c9b" d="M 1431.792969 915.554688 L -4.863281 915.554688 L -4.863281 23.785156 L 1431.792969 23.785156 L 1431.792969 915.554688 " fill-opacity="1" fill-rule="nonzero"/><path fill="#2d3540" d="M 101.574219 83.851562 L 87.359375 83.851562 L 87.359375 69.605469 L 101.574219 69.605469 L 101.574219 83.851562 " fill-opacity="1" fill-rule="nonzero"/><path fill="#e83157" d="M 189.867188 87.734375 L 122.980469 87.734375 L 122.980469 65.722656 L 189.867188 65.722656 L 189.867188 87.734375 " fill-opacity="1" fill-rule="nonzero"/><path fill="#2d3540" d="M 101.574219 118.054688 L 87.359375 118.054688 L 87.359375 103.820312 L 101.574219 103.820312 L 101.574219 118.054688 " fill-opacity="1" fill-rule="nonzero"/><path fill="#429ada" d="M 236.292969 121.953125 L 169.410156 121.953125 L 169.410156 99.9375 L 236.292969 99.9375 L 236.292969 121.953125 " fill-opacity="1" fill-rule="nonzero"/><path fill="#2d3540" d="M 101.574219 151.984375 L 87.359375 151.984375 L 87.359375 137.785156 L 101.574219 137.785156 L 101.574219 151.984375 " fill-opacity="1" fill-rule="nonzero"/><path fill="#cec72a" d="M 282.707031 155.882812 L 215.820312 155.882812 L 215.820312 133.886719 L 282.707031 133.886719 L 282.707031 155.882812 " fill-opacity="1" fill-rule="nonzero"/><path fill="#cec72a" d="M 636.558594 155.882812 L 569.671875 155.882812 L 569.671875 133.886719 L 636.558594 133.886719 L 636.558594 155.882812 " fill-opacity="1" fill-rule="nonzero"/><path fill="#ffffff" d="M 554.019531 155.882812 L 452.066406 155.882812 L 452.066406 133.886719 L 554.019531 133.886719 L 554.019531 155.882812 " fill-opacity="1" fill-rule="nonzero"/><path fill="#2d3540" d="M 101.574219 186.21875 L 87.359375 186.21875 L 87.359375 171.984375 L 101.574219 171.984375 L 101.574219 186.21875 " fill-opacity="1" fill-rule="nonzero"/><path fill="#ffffff" d="M 375.5625 190.101562 L 215.820312 190.101562 L 215.820312 168.085938 L 375.5625 168.085938 L 375.5625 190.101562 " fill-opacity="1" fill-rule="nonzero"/><path fill="#e83157" d="M 503.042969 190.101562 L 468.214844 190.101562 L 468.214844 168.085938 L 503.042969 168.085938 L 503.042969 190.101562 " fill-opacity="1" fill-rule="nonzero"/><path fill="#429ada" d="M 669.738281 190.101562 L 634.910156 190.101562 L 634.910156 168.085938 L 669.738281 168.085938 L 669.738281 190.101562 " fill-opacity="1" fill-rule="nonzero"/><path fill="#ffffff" d="M 621.21875 190.101562 L 518.144531 190.101562 L 518.144531 168.085938 L 621.21875 168.085938 L 621.21875 190.101562 " fill-opacity="1" fill-rule="nonzero"/><path fill="#2d3540" d="M 101.574219 220.148438 L 87.359375 220.148438 L 87.359375 205.917969 L 101.574219 205.917969 L 101.574219 220.148438 " fill-opacity="1" fill-rule="nonzero"/><path fill="#429ada" d="M 282.707031 224.03125 L 215.820312 224.03125 L 215.820312 202.035156 L 282.707031 202.035156 L 282.707031 224.03125 " fill-opacity="1" fill-rule="nonzero"/><path fill="#ffffff" d="M 563.746094 224.03125 L 496.878906 224.03125 L 496.878906 202.035156 L 563.746094 202.035156 L 563.746094 224.03125 " fill-opacity="1" fill-rule="nonzero"/><path fill="#ffffff" d="M 434.777344 155.882812 L 295.699219 155.882812 L 295.699219 133.886719 L 434.777344 133.886719 L 434.777344 155.882812 " fill-opacity="1" fill-rule="nonzero"/><path fill="#ffffff" d="M 455.425781 190.101562 L 388.539062 190.101562 L 388.539062 168.085938 L 455.425781 168.085938 L 455.425781 190.101562 " fill-opacity="1" fill-rule="nonzero"/><path fill="#ffffff" d="M 480.875 224.03125 L 295.699219 224.03125 L 295.699219 202.035156 L 480.875 202.035156 L 480.875 224.03125 " fill-opacity="1" fill-rule="nonzero"/><path fill="#ffffff" d="M 1019.457031 224.03125 L 580.957031 224.03125 L 580.957031 202.035156 L 1019.457031 202.035156 L 1019.457031 224.03125 " fill-opacity="1" fill-rule="nonzero"/><path fill="#2d3540" d="M 101.574219 254.367188 L 87.359375 254.367188 L 87.359375 240.136719 L 101.574219 240.136719 L 101.574219 254.367188 " fill-opacity="1" fill-rule="nonzero"/><path fill="#ffffff" d="M 236.292969 258.265625 L 169.410156 258.265625 L 169.410156 236.253906 L 236.292969 236.253906 L 236.292969 258.265625 " fill-opacity="1" fill-rule="nonzero"/><path fill="#cec72a" d="M 780.375 258.265625 L 713.488281 258.265625 L 713.488281 236.253906 L 780.375 236.253906 L 780.375 258.265625 " fill-opacity="1" fill-rule="nonzero"/><path fill="#ffffff" d="M 693.507812 258.265625 L 249.273438 258.265625 L 249.273438 236.253906 L 693.507812 236.253906 L 693.507812 258.265625 " fill-opacity="1" fill-rule="nonzero"/><path fill="#2d3540" d="M 101.574219 288.300781 L 87.359375 288.300781 L 87.359375 274.082031 L 101.574219 274.082031 L 101.574219 288.300781 " fill-opacity="1" fill-rule="nonzero"/><path fill="#cec72a" d="M 189.867188 292.199219 L 122.980469 292.199219 L 122.980469 270.183594 L 189.867188 270.183594 L 189.867188 292.199219 " fill-opacity="1" fill-rule="nonzero"/><path fill="#2d3540" d="M 101.574219 322.53125 L 87.359375 322.53125 L 87.359375 308.300781 L 101.574219 308.300781 L 101.574219 322.53125 " fill-opacity="1" fill-rule="nonzero"/><path fill="#e83157" d="M 236.292969 359.949219 L 169.410156 359.949219 L 169.410156 337.9375 L 236.292969 337.9375 L 236.292969 359.949219 " fill-opacity="1" fill-rule="nonzero"/><path fill="#2d3540" d="M 101.574219 356.464844 L 87.359375 356.464844 L 87.359375 342.214844 L 101.574219 342.214844 L 101.574219 356.464844 " fill-opacity="1" fill-rule="nonzero"/><path fill="#cec72a" d="M 282.707031 393.882812 L 215.820312 393.882812 L 215.820312 371.882812 L 282.707031 371.882812 L 282.707031 393.882812 " fill-opacity="1" fill-rule="nonzero"/><path fill="#2d3540" d="M 101.574219 390.679688 L 87.359375 390.679688 L 87.359375 376.449219 L 101.574219 376.449219 L 101.574219 390.679688 " fill-opacity="1" fill-rule="nonzero"/><path fill="#ffffff" d="M 329.132812 428.097656 L 262.25 428.097656 L 262.25 406.085938 L 329.132812 406.085938 L 329.132812 428.097656 " fill-opacity="1" fill-rule="nonzero"/><path fill="#ffffff" d="M 1006.746094 428.097656 L 939.863281 428.097656 L 939.863281 406.085938 L 1006.746094 406.085938 L 1006.746094 428.097656 " fill-opacity="1" fill-rule="nonzero"/><path fill="#ffffff" d="M 915.984375 428.097656 L 606.65625 428.097656 L 606.65625 406.085938 L 915.984375 406.085938 L 915.984375 428.097656 " fill-opacity="1" fill-rule="nonzero"/><path fill="#2d3540" d="M 101.574219 424.613281 L 87.359375 424.613281 L 87.359375 410.378906 L 101.574219 410.378906 L 101.574219 424.613281 " fill-opacity="1" fill-rule="nonzero"/><path fill="#ffffff" d="M 460.386719 462.03125 L 262.25 462.03125 L 262.25 440.035156 L 460.386719 440.035156 L 460.386719 462.03125 " fill-opacity="1" fill-rule="nonzero"/><path fill="#2d3540" d="M 101.574219 458.847656 L 87.359375 458.847656 L 87.359375 444.597656 L 101.574219 444.597656 L 101.574219 458.847656 " fill-opacity="1" fill-rule="nonzero"/><path fill="#429ada" d="M 329.132812 496.265625 L 262.25 496.265625 L 262.25 474.234375 L 329.132812 474.234375 L 329.132812 496.265625 " fill-opacity="1" fill-rule="nonzero"/><path fill="#cec72a" d="M 616.71875 530.195312 L 549.835938 530.195312 L 549.835938 508.183594 L 616.71875 508.183594 L 616.71875 530.195312 " fill-opacity="1" fill-rule="nonzero"/><path fill="#cec72a" d="M 583.285156 496.265625 L 516.382812 496.265625 L 516.382812 474.234375 L 583.285156 474.234375 L 583.285156 496.265625 " fill-opacity="1" fill-rule="nonzero"/><path fill="#ffffff" d="M 880.378906 496.265625 L 597.6875 496.265625 L 597.6875 474.234375 L 880.378906 474.234375 L 880.378906 496.265625 " fill-opacity="1" fill-rule="nonzero"/><path fill="#2d3540" d="M 101.574219 492.777344 L 87.359375 492.777344 L 87.359375 478.53125 L 101.574219 478.53125 L 101.574219 492.777344 " fill-opacity="1" fill-rule="nonzero"/><path fill="#ffffff" d="M 386.101562 530.195312 L 262.25 530.195312 L 262.25 508.183594 L 386.101562 508.183594 L 386.101562 530.195312 " fill-opacity="1" fill-rule="nonzero"/><path fill="#ffffff" d="M 592.902344 428.097656 L 342.128906 428.097656 L 342.128906 406.085938 L 592.902344 406.085938 L 592.902344 428.097656 " fill-opacity="1" fill-rule="nonzero"/><path fill="#e83157" d="M 540.867188 462.03125 L 473.964844 462.03125 L 473.964844 440.035156 L 540.867188 440.035156 L 540.867188 462.03125 " fill-opacity="1" fill-rule="nonzero"/><path fill="#ffffff" d="M 500.0625 496.265625 L 342.128906 496.265625 L 342.128906 474.234375 L 500.0625 474.234375 L 500.0625 496.265625 " fill-opacity="1" fill-rule="nonzero"/><path fill="#ffffff" d="M 533.988281 530.195312 L 410.152344 530.195312 L 410.152344 508.183594 L 533.988281 508.183594 L 533.988281 530.195312 " fill-opacity="1" fill-rule="nonzero"/><path fill="#2d3540" d="M 101.574219 526.980469 L 87.359375 526.980469 L 87.359375 512.746094 L 101.574219 512.746094 L 101.574219 526.980469 " fill-opacity="1" fill-rule="nonzero"/><path fill="#e83157" d="M 236.292969 564.414062 L 215.820312 564.414062 L 215.820312 542.398438 L 236.292969 542.398438 L 236.292969 564.414062 " fill-opacity="1" fill-rule="nonzero"/><path fill="#429ada" d="M 310.089844 564.414062 L 243.21875 564.414062 L 243.21875 542.398438 L 310.089844 542.398438 L 310.089844 564.414062 " fill-opacity="1" fill-rule="nonzero"/><path fill="#ffffff" d="M 356.054688 599.027344 L 182.386719 599.027344 L 182.386719 577.011719 L 356.054688 577.011719 L 356.054688 599.027344 " fill-opacity="1" fill-rule="nonzero"/><path fill="#e83157" d="M 421.085938 599.027344 L 373.566406 599.027344 L 373.566406 577.011719 L 421.085938 577.011719 L 421.085938 599.027344 " fill-opacity="1" fill-rule="nonzero"/><path fill="#ffffff" d="M 654.195312 599.027344 L 606.65625 599.027344 L 606.65625 577.011719 L 654.195312 577.011719 L 654.195312 599.027344 " fill-opacity="1" fill-rule="nonzero"/><path fill="#ffffff" d="M 587.992188 599.027344 L 436.617188 599.027344 L 436.617188 577.011719 L 587.992188 577.011719 L 587.992188 599.027344 " fill-opacity="1" fill-rule="nonzero"/><path fill="#ffffff" d="M 460.386719 564.414062 L 321.402344 564.414062 L 321.402344 542.398438 L 460.386719 542.398438 L 460.386719 564.414062 " fill-opacity="1" fill-rule="nonzero"/><path fill="#2d3540" d="M 101.574219 560.925781 L 87.359375 560.925781 L 87.359375 546.695312 L 101.574219 546.695312 L 101.574219 560.925781 " fill-opacity="1" fill-rule="nonzero"/><path fill="#ffffff" d="M 236.292969 633.78125 L 169.410156 633.78125 L 169.410156 611.769531 L 236.292969 611.769531 L 236.292969 633.78125 " fill-opacity="1" fill-rule="nonzero"/><path fill="#ffffff" d="M 590.8125 633.78125 L 249.273438 633.78125 L 249.273438 611.769531 L 590.8125 611.769531 L 590.8125 633.78125 " fill-opacity="1" fill-rule="nonzero"/><path fill="#cec72a" d="M 674.050781 633.78125 L 609.890625 633.78125 L 609.890625 611.769531 L 674.050781 611.769531 L 674.050781 633.78125 " fill-opacity="1" fill-rule="nonzero"/><path fill="#ffffff" d="M 804.632812 633.78125 L 688.515625 633.78125 L 688.515625 611.769531 L 804.632812 611.769531 L 804.632812 633.78125 " fill-opacity="1" fill-rule="nonzero"/><path fill="#2d3540" d="M 101.574219 595.144531 L 87.359375 595.144531 L 87.359375 580.910156 L 101.574219 580.910156 L 101.574219 595.144531 " fill-opacity="1" fill-rule="nonzero"/><path fill="#ffffff" d="M 282.707031 667.984375 L 215.820312 667.984375 L 215.820312 645.984375 L 282.707031 645.984375 L 282.707031 667.984375 " fill-opacity="1" fill-rule="nonzero"/><path fill="#2d3540" d="M 101.574219 629.074219 L 87.359375 629.074219 L 87.359375 614.84375 L 101.574219 614.84375 L 101.574219 629.074219 " fill-opacity="1" fill-rule="nonzero"/><path fill="#cec72a" d="M 282.707031 701.929688 L 215.820312 701.929688 L 215.820312 679.917969 L 282.707031 679.917969 L 282.707031 701.929688 " fill-opacity="1" fill-rule="nonzero"/><path fill="#ffffff" d="M 533.988281 667.984375 L 504.214844 667.984375 L 504.214844 645.984375 L 533.988281 645.984375 L 533.988281 667.984375 " fill-opacity="1" fill-rule="nonzero"/><path fill="#ffffff" d="M 646.542969 701.929688 L 579.65625 701.929688 L 579.65625 679.917969 L 646.542969 679.917969 L 646.542969 701.929688 " fill-opacity="1" fill-rule="nonzero"/><path fill="#ffffff" d="M 492.789062 667.984375 L 290.742188 667.984375 L 290.742188 645.984375 L 492.789062 645.984375 L 492.789062 667.984375 " fill-opacity="1" fill-rule="nonzero"/><path fill="#ffffff" d="M 622.726562 667.984375 L 545.523438 667.984375 L 545.523438 645.984375 L 622.726562 645.984375 L 622.726562 667.984375 " fill-opacity="1" fill-rule="nonzero"/><path fill="#ffffff" d="M 571.097656 701.929688 L 290.742188 701.929688 L 290.742188 679.917969 L 571.097656 679.917969 L 571.097656 701.929688 " fill-opacity="1" fill-rule="nonzero"/><path fill="#2d3540" d="M 101.574219 663.292969 L 87.359375 663.292969 L 87.359375 649.058594 L 101.574219 649.058594 L 101.574219 663.292969 " fill-opacity="1" fill-rule="nonzero"/><path fill="#ffffff" d="M 236.292969 736.148438 L 169.410156 736.148438 L 169.410156 714.136719 L 236.292969 714.136719 L 236.292969 736.148438 " fill-opacity="1" fill-rule="nonzero"/><path fill="#cec72a" d="M 519.09375 736.148438 L 472.078125 736.148438 L 472.078125 714.136719 L 519.09375 714.136719 L 519.09375 736.148438 " fill-opacity="1" fill-rule="nonzero"/><path fill="#ffffff" d="M 452.257812 736.148438 L 254.515625 736.148438 L 254.515625 714.136719 L 452.257812 714.136719 L 452.257812 736.148438 " fill-opacity="1" fill-rule="nonzero"/><path fill="#2d3540" d="M 101.574219 697.222656 L 87.359375 697.222656 L 87.359375 682.992188 L 101.574219 682.992188 L 101.574219 697.222656 " fill-opacity="1" fill-rule="nonzero"/><path fill="#e83157" d="M 189.867188 770.082031 L 122.980469 770.082031 L 122.980469 748.066406 L 189.867188 748.066406 L 189.867188 770.082031 " fill-opacity="1" fill-rule="nonzero"/><path fill="#2d3540" d="M 101.574219 731.457031 L 87.359375 731.457031 L 87.359375 717.210938 L 101.574219 717.210938 L 101.574219 731.457031 " fill-opacity="1" fill-rule="nonzero"/><path fill="#2d3540" d="M 101.574219 768.765625 L 87.359375 768.765625 L 87.359375 754.515625 L 101.574219 754.515625 L 101.574219 768.765625 " fill-opacity="1" fill-rule="nonzero"/><path fill="#2d3540" d="M 101.574219 802.964844 L 87.359375 802.964844 L 87.359375 788.75 L 101.574219 788.75 L 101.574219 802.964844 " fill-opacity="1" fill-rule="nonzero"/></svg>